<svg width="78" height="70" viewBox="0 0 78 70" fill="none" xmlns="http://www.w3.org/2000/svg">
<path d="M44.8962 36.3701C45.6618 36.1016 46.5033 36.012 47.361 36.1454L73.196 40.165C75.9755 40.5976 77.8792 43.2018 77.447 45.9814C77.0144 48.7608 74.41 50.6635 71.6305 50.2314L55.0153 47.6454L62.4616 62.3398C63.733 64.8489 62.7303 67.9137 60.2214 69.1855C57.7122 70.457 54.6466 69.4542 53.3747 66.9452L41.5544 43.623C40.2826 41.1137 41.2864 38.0481 43.7956 36.7763C44.1532 36.5951 44.5228 36.4611 44.8962 36.3701ZM30.1471 36.1445C31.0048 36.0111 31.8464 36.1006 32.612 36.3691C32.9853 36.4601 33.3551 36.5941 33.7126 36.7753C36.2215 38.0473 37.2254 41.1129 35.9538 43.622L24.1335 66.9443C22.8617 69.4532 19.796 70.4558 17.2868 69.1845C14.7777 67.9127 13.775 64.8481 15.0466 62.3388L22.4929 47.6445L5.87762 50.2304C3.09804 50.6627 0.493857 48.7599 0.0612103 45.9804C-0.371075 43.2007 1.5325 40.5965 4.31219 40.164L30.1471 36.1445ZM34.3483 2.84759C35.5893 0.32325 38.6421 -0.717315 41.1667 0.523375C41.5298 0.70188 41.8615 0.919445 42.1608 1.16595C42.8294 1.61559 43.4022 2.22995 43.8083 2.99017L56.1276 26.0536C57.4523 28.5349 56.5149 31.6209 54.0339 32.9462C51.5526 34.2715 48.4668 33.3336 47.1413 30.8525L39.2233 16.0283L31.9587 30.8076C30.7178 33.3321 27.665 34.3733 25.1403 33.1327C22.6159 31.8918 21.5755 28.839 22.8161 26.3144L34.3483 2.84759Z" fill="white"/>
</svg>
